<?xml version="1.0" encoding="utf-8"?>
<!-- Generator: Adobe Illustrator 16.0.0, SVG Export Plug-In . SVG Version: 6.00 Build 0)  -->
<!DOCTYPE svg PUBLIC "-//W3C//DTD SVG 1.1//EN" "http://www.w3.org/Graphics/SVG/1.1/DTD/svg11.dtd">
<svg version="1.1" id="Layer_1" xmlns="http://www.w3.org/2000/svg" xmlns:xlink="http://www.w3.org/1999/xlink" x="0px" y="0px"
	 width="211.003px" height="204.963px" viewBox="0 0 211.003 204.963" enable-background="new 0 0 211.003 204.963"
	 xml:space="preserve">
<g>
	<defs>
		<path id="SVGID_1_" d="M-13.491,105.141c0,70.151,56.878,127.031,127.046,127.031c70.151-0.001,127.029-56.88,127.029-127.031
			c0-70.167-56.878-127.046-127.029-127.046C43.387-21.905-13.491,34.974-13.491,105.141"/>
	</defs>
	<clipPath id="SVGID_2_">
		<use xlink:href="#SVGID_1_"  overflow="visible"/>
	</clipPath>
	<polygon clip-path="url(#SVGID_2_)" fill="#00baf2" points="41.381,93.285 4.818,96.985 6.735,134.057 39.934,135.674 
		83.945,161.391 77.453,64.782 	"/>
	<path clip-path="url(#SVGID_2_)" fill="#00baf2" d="M123.899,161.693l-11.936-3.661c24.492-75.291-14.418-91.755-14.817-91.914
		l4.743-11.251C103.95,55.679,151.828,75.842,123.899,161.693"/>
	<path clip-path="url(#SVGID_2_)" fill="#00baf2" d="M123.564,160.73l-11.378-3.597c23.331-73.899-13.734-90.069-14.108-90.22
		l4.527-11.044C104.562,56.665,150.166,76.463,123.564,160.73"/>
	<path clip-path="url(#SVGID_2_)" fill="#00baf2" d="M123.564,160.73l-11.378-3.597c23.331-73.899-13.734-90.069-14.108-90.22
		l4.527-11.044C104.562,56.665,150.166,76.463,123.564,160.73"/>
	<path clip-path="url(#SVGID_2_)" fill="#00baf2" d="M160.12,174.815l-12.206-2.745c24.493-102.594-26.967-136.174-27.484-136.492
		l6.797-10.225C129.652,26.881,186.579,63.978,160.12,174.815"/>
	<path clip-path="url(#SVGID_2_)" fill="#00baf2" d="M159.626,173.917l-11.752-2.715C171.467,69.953,121.91,36.836,121.417,36.509
		l6.531-10.089C130.295,27.923,185.106,64.535,159.626,173.917"/>
	<path clip-path="url(#SVGID_2_)" fill="#00baf2" d="M159.626,173.917l-11.752-2.715C171.467,69.953,121.91,36.836,121.417,36.509
		l6.531-10.089C130.295,27.923,185.106,64.535,159.626,173.917"/>
	<path clip-path="url(#SVGID_2_)" fill="#00baf2" d="M185.537,203.74l-11.492-4.83c54.509-122.249-20.211-187.769-20.967-188.413
		l8.253-9.151C162.158,2.063,243.631,73.455,185.537,203.74"/>
	<path clip-path="url(#SVGID_2_)" fill="#00baf2" d="M185.472,202.736l-11.116-4.782c52.717-120.982-19.534-185.826-20.283-186.462
		l7.987-9.048C162.866,3.145,241.65,73.79,185.472,202.736"/>
	<path clip-path="url(#SVGID_2_)" fill="#00baf2" d="M185.472,202.736l-11.116-4.782c52.717-120.982-19.534-185.826-20.283-186.462
		l7.987-9.048C162.866,3.145,241.65,73.79,185.472,202.736"/>
</g>
</svg>
